<?xml version="1.0" encoding="UTF-8" ?>
<!DOCTYPE svg PUBLIC "-//W3C//DTD SVG 1.1//EN" "http://www.w3.org/Graphics/SVG/1.1/DTD/svg11.dtd">
<svg width="549pt" height="228pt" viewBox="0 0 549 228" version="1.1" xmlns="http://www.w3.org/2000/svg">
<path fill="#fcfcfc" d=" M 0.00 0.00 L 549.00 0.00 L 549.00 228.00 L 0.00 228.00 L 0.00 0.00 Z" />
<path fill="#5d5d5d" d=" M 312.14 32.08 C 315.64 27.67 323.51 29.03 325.30 34.37 C 326.75 37.36 325.17 40.54 323.44 43.00 C 331.81 43.00 340.18 43.00 348.54 43.00 C 346.29 40.06 345.29 35.86 347.66 32.68 C 350.85 27.63 359.48 28.72 361.31 34.42 C 362.75 37.39 361.15 40.56 359.43 43.00 C 363.90 43.03 368.37 42.93 372.85 43.04 C 372.75 54.06 372.74 65.09 372.85 76.12 C 368.47 76.72 364.02 76.26 359.62 76.39 C 361.01 78.73 362.68 81.57 361.46 84.36 C 360.02 89.54 352.93 91.86 348.96 88.02 C 345.35 85.07 345.74 79.81 348.41 76.38 C 340.15 76.43 331.89 76.35 323.64 76.42 C 324.81 78.59 326.51 81.04 325.67 83.63 C 324.80 88.00 319.67 91.33 315.43 89.45 C 312.33 88.41 310.31 85.24 310.17 82.05 C 310.35 79.96 311.44 78.13 312.46 76.36 C 308.08 76.44 303.70 76.35 299.32 76.44 C 298.95 65.31 299.33 54.17 299.12 43.04 C 303.61 42.93 308.09 43.03 312.58 43.00 C 310.06 39.92 309.27 35.21 312.14 32.08 Z" />
<path fill="#5d5d5d" d=" M 42.42 31.22 C 46.35 28.28 52.43 30.57 53.96 35.06 C 54.71 37.87 54.12 40.84 52.46 43.20 C 60.56 43.21 68.67 43.17 76.77 43.23 C 74.73 40.39 74.05 36.28 76.19 33.30 C 78.62 29.72 84.14 28.72 87.45 31.68 C 91.17 34.26 90.87 39.81 88.50 43.20 C 92.66 43.20 96.82 43.21 100.99 43.16 C 101.03 54.44 100.98 65.73 101.00 77.02 C 96.75 77.02 92.51 77.00 88.27 77.00 C 90.32 79.48 90.44 82.71 90.03 85.76 C 88.45 87.99 86.46 90.41 83.45 90.37 C 79.71 90.96 76.38 88.30 75.05 84.96 C 74.41 82.09 75.31 79.25 77.09 77.00 C 68.73 77.13 60.35 76.72 52.00 77.24 C 54.64 79.31 54.42 82.83 54.00 85.80 C 52.40 87.96 50.50 90.44 47.51 90.36 C 43.75 90.99 40.40 88.32 39.04 84.98 C 38.44 82.11 39.27 79.23 41.10 77.00 C 36.74 77.01 32.37 76.99 28.00 77.00 C 28.05 65.74 27.90 54.46 28.07 43.20 C 32.35 43.20 36.63 43.20 40.91 43.19 C 37.82 39.74 38.23 33.60 42.42 31.22 Z" />
<path fill="#fcfcfc" d=" M 40.53 35.59 C 41.71 32.33 45.87 29.94 49.11 31.80 C 52.54 32.91 53.50 36.73 53.00 39.94 C 52.24 40.94 51.48 41.93 50.72 42.94 C 47.92 43.16 44.97 43.66 42.26 42.65 C 40.68 40.75 39.19 38.02 40.53 35.59 Z" />
<path fill="#fcfcfc" d=" M 76.51 35.62 C 77.69 32.34 81.89 29.93 85.12 31.81 C 88.53 32.92 89.49 36.72 89.00 39.91 C 88.24 40.92 87.48 41.93 86.72 42.95 C 83.92 43.17 80.99 43.62 78.28 42.68 C 76.71 40.78 75.18 38.06 76.51 35.62 Z" />
<path fill="#5d5d5d" d=" M 159.66 35.64 C 161.30 30.64 168.50 29.24 172.13 32.89 C 175.44 35.71 174.98 40.67 172.76 44.02 C 180.85 43.97 188.94 43.95 197.04 44.02 C 195.64 41.54 194.07 38.53 195.64 35.74 C 197.42 29.78 206.54 29.20 209.46 34.49 C 211.36 37.50 210.48 41.17 208.73 44.01 C 216.83 43.98 224.93 43.95 233.04 44.02 C 231.62 41.53 230.10 38.54 231.64 35.74 C 233.44 29.77 242.66 29.18 245.52 34.58 C 247.34 37.58 246.44 41.17 244.74 43.99 C 248.91 43.95 253.08 43.98 257.26 43.99 C 257.48 55.32 257.49 66.66 257.25 77.98 C 253.05 78.03 248.85 78.06 244.65 78.00 C 245.79 80.20 247.18 82.72 246.35 85.27 C 245.65 89.02 241.76 91.76 237.98 91.10 C 234.11 91.19 231.57 87.52 230.91 84.06 C 230.87 81.84 232.11 79.90 233.06 77.98 C 224.94 78.06 216.82 78.00 208.70 77.99 C 210.19 80.65 211.42 83.92 209.83 86.84 C 207.55 92.48 198.15 92.77 195.92 86.93 C 193.97 84.01 195.48 80.67 197.06 77.98 C 188.92 78.09 180.78 77.94 172.64 78.01 C 175.02 81.27 175.46 86.26 172.20 89.11 C 170.11 91.35 166.90 91.40 164.09 90.88 C 161.21 89.81 159.49 86.99 158.93 84.09 C 158.79 81.85 160.12 79.91 161.06 77.98 C 156.83 77.72 152.41 78.57 148.30 77.65 C 147.69 66.54 148.00 55.29 148.16 44.14 C 152.44 43.86 156.74 44.00 161.04 44.02 C 159.59 41.51 158.06 38.47 159.66 35.64 Z" />
<path fill="#fcfcfc" d=" M 314.95 43.00 C 309.89 40.30 310.91 31.26 317.01 30.85 C 321.04 29.96 324.21 33.28 324.76 37.03 C 324.22 39.40 323.20 41.63 321.11 43.00 C 319.05 42.99 317.00 42.99 314.95 43.00 Z" />
<path fill="#fcfcfc" d=" M 350.96 43.00 C 345.87 40.31 346.91 31.23 353.03 30.85 C 357.53 29.75 361.77 34.63 360.18 38.90 C 359.88 40.72 358.40 41.88 357.10 43.00 C 355.05 42.99 353.00 42.99 350.96 43.00 Z" />
<path fill="#fcfcfc" d=" M 160.27 38.96 C 159.95 34.16 165.83 29.98 170.04 32.89 C 174.14 35.05 174.07 41.15 170.73 43.96 C 168.16 44.00 165.59 44.00 163.01 44.01 C 161.75 42.54 160.57 40.92 160.27 38.96 Z" />
<path fill="#fcfcfc" d=" M 201.13 32.13 C 206.69 30.50 211.42 37.39 208.26 42.07 C 206.90 44.92 203.46 43.86 200.94 44.03 C 198.00 44.56 196.82 41.13 196.24 38.89 C 196.22 35.87 198.33 33.16 201.13 32.13 Z" />
<path fill="#fcfcfc" d=" M 232.51 37.12 C 233.36 33.09 238.47 30.42 242.04 32.89 C 246.03 34.97 246.25 41.22 242.69 43.80 C 240.15 44.22 237.55 43.94 234.99 44.00 C 233.45 42.12 231.58 39.68 232.51 37.12 Z" />
<path fill="#5d5d5d" d=" M 436.91 35.89 C 439.57 31.26 447.35 31.27 449.96 35.95 C 452.06 39.03 451.15 43.22 448.93 46.00 C 453.29 46.00 457.64 46.00 462.00 46.00 C 462.01 57.11 461.98 68.22 462.01 79.33 C 457.68 79.52 453.34 79.33 449.01 79.44 C 450.92 81.85 451.75 84.99 450.70 87.97 C 449.15 92.36 443.27 94.34 439.37 91.79 C 434.87 89.34 434.85 82.85 437.95 79.26 C 433.63 79.52 429.30 79.40 424.98 79.39 C 425.00 68.26 424.96 57.13 424.99 46.00 C 429.35 46.00 433.71 46.00 438.07 46.00 C 437.37 45.00 436.68 43.99 435.99 42.99 C 436.05 40.63 435.33 37.93 436.91 35.89 Z" />
<path fill="#fcfcfc" d=" M 438.18 36.42 C 440.65 32.63 447.03 32.95 449.08 37.00 C 451.17 40.00 449.45 43.94 446.68 45.80 C 444.04 45.85 440.45 46.96 438.67 44.39 C 438.07 43.63 437.51 42.86 436.97 42.07 C 437.11 40.15 436.57 37.88 438.18 36.42 Z" />
<path fill="#fcfcfc" d=" M 300.80 44.00 C 324.27 44.00 347.74 44.00 371.21 44.00 C 371.23 54.34 371.22 64.67 371.21 75.00 C 347.74 75.02 324.27 75.02 300.79 75.00 C 300.77 64.67 300.77 54.33 300.80 44.00 Z" />
<path fill="#fcfcfc" d=" M 29.00 44.79 C 52.67 44.77 76.33 44.77 100.00 44.79 C 100.00 55.19 100.00 65.60 100.00 76.00 C 76.33 76.00 52.67 76.00 29.00 76.00 C 29.00 65.60 29.00 55.19 29.00 44.79 Z" />
<path fill="#fcfcfc" d=" M 149.44 45.41 C 184.91 45.28 220.38 45.53 255.85 45.29 C 256.16 55.74 256.06 66.22 255.90 76.69 C 220.41 76.49 184.91 76.74 149.42 76.56 C 149.38 66.18 149.33 55.79 149.44 45.41 Z" />
<path fill="#fcfcfc" d=" M 426.00 47.00 C 437.67 47.00 449.33 47.00 461.00 47.00 C 461.00 57.34 461.00 67.67 461.00 78.01 C 449.33 78.01 437.67 78.00 426.00 78.01 C 426.00 67.67 426.00 57.34 426.00 47.00 Z" />
<path fill="#fcfcfc" d=" M 313.30 77.31 C 316.28 75.96 319.72 76.04 322.74 77.22 C 323.50 78.79 324.16 80.39 324.77 82.03 C 324.10 84.32 323.34 87.04 320.84 87.94 C 317.18 90.02 311.89 87.20 311.72 82.94 C 311.33 80.91 312.38 79.04 313.30 77.31 Z" />
<path fill="#fcfcfc" d=" M 349.36 77.26 C 352.34 75.99 355.75 76.03 358.75 77.24 C 359.51 78.81 360.17 80.42 360.77 82.06 C 360.09 84.36 359.31 87.08 356.78 87.97 C 353.14 89.99 347.92 87.20 347.73 82.98 C 347.32 80.91 348.39 79.00 349.36 77.26 Z" />
<path fill="#fcfcfc" d=" M 43.10 77.01 C 45.42 77.04 47.76 76.88 50.08 77.17 C 52.85 78.78 53.34 82.08 53.01 85.01 C 51.47 86.85 49.81 89.44 47.04 89.05 C 43.38 89.71 40.41 86.36 40.00 82.98 C 39.92 80.59 41.65 78.71 43.10 77.01 Z" />
<path fill="#fcfcfc" d=" M 79.11 77.00 C 81.45 77.03 83.79 77.03 86.13 77.01 C 87.72 78.62 89.49 80.50 89.02 82.99 C 89.47 85.80 86.85 87.49 84.97 89.02 C 81.94 89.35 78.37 88.98 76.97 85.81 C 74.79 82.79 76.82 79.23 79.11 77.00 Z" />
<path fill="#fcfcfc" d=" M 163.04 78.01 C 166.09 78.43 170.40 76.62 172.24 79.96 C 173.86 82.66 173.51 86.93 170.63 88.73 C 167.49 91.48 162.05 89.74 160.84 85.80 C 159.27 83.03 161.19 80.07 163.04 78.01 Z" />
<path fill="#fcfcfc" d=" M 199.07 78.00 C 202.13 78.43 206.45 76.61 208.27 79.99 C 209.85 82.70 209.50 86.92 206.64 88.73 C 203.53 91.46 198.12 89.78 196.88 85.89 C 195.25 83.10 197.16 80.06 199.07 78.00 Z" />
<path fill="#fcfcfc" d=" M 235.05 78.01 C 238.10 78.44 242.43 76.61 244.25 79.97 C 245.88 82.70 245.49 86.98 242.58 88.77 C 239.43 91.46 234.06 89.72 232.85 85.82 C 231.27 83.05 233.18 80.06 235.05 78.01 Z" />
<path fill="#fcfcfc" d=" M 437.00 83.00 C 438.42 80.48 440.97 78.78 443.98 79.33 C 447.64 78.81 450.47 82.60 449.97 86.00 C 449.27 89.80 444.84 92.94 441.13 91.13 C 439.15 90.54 438.11 88.66 437.00 87.09 C 437.00 85.73 437.00 84.36 437.00 83.00 Z" />
<path fill="#5d5d5d" d=" M 170.05 140.05 C 172.29 133.89 182.64 134.34 184.34 140.70 C 185.79 143.54 184.16 146.51 182.79 149.01 C 190.96 148.97 199.14 148.95 207.31 149.00 C 205.92 146.54 204.50 143.57 205.80 140.76 C 207.34 134.30 217.81 133.91 220.06 140.04 C 221.82 143.01 220.36 146.31 218.82 149.00 C 226.98 148.97 235.15 148.97 243.32 149.00 C 241.93 146.56 240.51 143.60 241.79 140.81 C 243.29 134.29 253.81 133.85 256.06 140.05 C 257.83 143.02 256.36 146.31 254.79 149.00 C 259.12 149.00 263.44 148.91 267.77 149.04 C 267.83 158.36 267.74 167.69 267.81 177.01 C 267.71 178.72 268.08 180.59 267.37 182.20 C 266.27 181.21 266.80 179.32 266.50 177.99 C 266.23 168.67 266.61 159.33 266.32 150.00 C 230.81 150.00 195.31 150.00 159.80 150.00 C 159.78 160.39 159.74 170.77 159.82 181.16 C 192.21 181.30 224.61 181.17 257.01 181.23 C 259.56 181.19 262.18 181.51 264.65 180.69 C 265.81 181.04 266.17 181.55 265.73 182.22 C 262.13 182.93 258.46 182.42 254.82 182.66 C 256.52 185.44 257.82 188.92 255.88 191.94 C 253.30 197.82 243.62 197.23 241.84 191.03 C 240.43 188.15 242.13 185.26 242.96 182.51 C 235.05 182.69 227.14 182.56 219.23 182.56 C 219.27 184.15 220.37 185.51 220.74 187.05 C 222.11 193.21 214.28 198.68 209.02 194.93 C 204.55 192.46 204.54 186.41 207.22 182.60 C 199.08 182.61 190.94 182.56 182.79 182.62 C 184.28 185.21 185.83 188.35 184.20 191.27 C 182.26 197.02 173.45 197.74 170.49 192.49 C 168.38 189.36 169.47 185.54 171.27 182.57 C 167.01 182.59 162.74 182.67 158.48 182.50 C 158.39 171.31 158.23 160.11 158.56 148.93 C 162.83 149.03 167.09 148.96 171.36 148.98 C 169.65 146.38 168.46 143.01 170.05 140.05 Z" />
<path fill="#5d5d5d" d=" M 312.81 140.89 C 314.25 135.80 321.43 134.22 325.18 137.72 C 328.56 140.63 328.31 145.56 325.89 149.01 C 333.95 148.96 342.02 148.97 350.08 149.01 C 348.87 146.50 347.33 143.58 348.79 140.83 C 350.68 134.35 361.20 134.20 363.18 140.70 C 364.84 143.51 363.17 146.45 361.90 149.02 C 366.17 149.03 370.46 148.80 374.73 149.20 C 374.83 160.40 374.87 171.61 374.71 182.81 C 370.46 183.26 366.18 183.04 361.91 182.99 C 363.13 185.55 364.83 188.51 363.20 191.30 C 361.30 197.83 350.56 197.77 348.78 191.19 C 347.34 188.40 348.88 185.52 350.10 183.00 C 342.04 183.10 333.97 183.11 325.91 182.99 C 327.12 185.55 328.81 188.52 327.19 191.31 C 325.32 197.83 314.55 197.78 312.82 191.19 C 311.38 188.42 312.92 185.54 314.10 183.00 C 309.83 183.03 305.54 183.28 301.29 182.79 C 301.16 171.59 301.17 160.39 301.28 149.20 C 305.55 148.80 309.83 149.02 314.11 149.02 C 312.94 146.52 311.36 143.62 312.81 140.89 Z" />
<path fill="#fcfcfc" d=" M 171.10 140.25 C 172.28 139.07 173.53 137.97 174.87 136.98 C 180.38 135.28 185.74 141.57 182.61 146.60 C 181.03 150.02 176.93 148.86 173.95 148.92 C 170.66 147.44 170.20 143.35 171.10 140.25 Z" />
<path fill="#fcfcfc" d=" M 207.11 140.25 C 208.88 138.22 211.16 136.28 214.08 136.99 C 219.97 137.31 221.51 146.80 216.00 148.91 C 213.44 148.71 210.06 149.99 208.23 147.60 C 206.28 145.67 206.58 142.70 207.11 140.25 Z" />
<path fill="#fcfcfc" d=" M 243.10 140.27 C 244.89 138.23 247.13 136.26 250.09 136.99 C 255.95 137.33 257.51 146.72 252.03 148.92 C 249.47 148.70 246.11 150.00 244.26 147.63 C 242.29 145.71 242.58 142.72 243.10 140.27 Z" />
<path fill="#fcfcfc" d=" M 313.69 142.98 C 313.70 138.29 320.05 135.01 323.69 138.24 C 327.53 140.63 327.12 146.25 323.89 149.00 C 321.31 149.00 318.74 149.00 316.17 149.00 C 314.67 147.36 313.37 145.32 313.69 142.98 Z" />
<path fill="#fcfcfc" d=" M 352.35 138.25 C 355.72 135.28 361.41 137.77 362.28 141.95 C 363.18 144.55 361.60 147.14 359.88 149.00 C 357.31 149.00 354.74 149.00 352.17 149.00 C 349.04 146.29 348.61 140.63 352.35 138.25 Z" />
<path fill="#5d5d5d" d=" M 38.97 140.04 C 42.54 136.29 49.54 137.83 51.30 142.65 C 52.91 145.46 51.67 148.75 49.95 151.18 C 58.04 151.25 66.12 151.21 74.21 151.20 C 72.61 148.46 72.13 145.26 73.06 142.21 C 74.76 140.05 76.99 137.82 79.97 137.95 C 84.34 137.67 88.21 141.74 88.05 146.06 C 88.00 147.97 86.85 149.59 85.95 151.20 C 94.04 151.22 102.13 151.21 110.22 151.20 C 108.58 148.47 108.12 145.26 109.06 142.21 C 111.31 138.68 116.14 136.46 119.95 138.97 C 124.46 141.19 125.21 147.50 121.97 151.16 C 126.25 151.28 130.53 151.13 134.81 151.30 C 135.22 162.51 134.91 173.75 134.97 184.97 C 130.60 185.05 126.23 184.98 121.85 185.00 C 124.64 188.49 124.69 193.40 121.52 196.68 C 118.34 198.92 113.54 199.20 110.71 196.22 C 107.60 193.26 108.08 188.16 110.63 185.00 C 102.37 185.02 94.11 185.01 85.85 185.00 C 87.39 187.54 88.99 190.64 87.43 193.59 C 85.72 198.34 79.20 199.97 75.36 196.80 C 71.66 194.04 71.86 188.35 74.63 185.00 C 66.37 185.01 58.12 184.99 49.86 185.00 C 51.59 187.69 53.02 191.18 51.15 194.19 C 48.97 199.15 41.47 199.89 38.20 195.69 C 35.67 192.58 36.27 188.02 38.62 185.00 C 34.28 185.00 29.95 185.00 25.62 185.00 C 25.73 173.73 25.33 162.44 25.82 151.18 C 29.96 151.24 34.10 151.20 38.24 151.22 C 36.15 147.82 35.65 142.86 38.97 140.04 Z" />
<path fill="#5d5d5d" d=" M 437.67 141.48 C 440.81 136.81 449.03 137.67 450.92 143.04 C 452.34 146.07 451.17 149.47 449.30 152.00 C 453.65 151.99 458.01 152.00 462.36 152.00 C 462.43 163.11 462.38 174.23 462.39 185.34 C 458.01 185.40 453.63 185.51 449.26 185.23 C 450.87 187.50 452.21 190.35 451.25 193.16 C 450.59 196.57 447.26 198.69 443.99 199.07 C 440.45 198.87 437.11 196.50 436.23 192.98 C 435.25 190.26 436.88 187.66 438.10 185.36 C 433.82 185.42 429.55 185.36 425.27 185.43 C 424.65 174.32 425.15 163.14 425.00 152.00 C 429.44 151.99 433.88 152.00 438.33 152.00 C 436.02 149.02 434.86 144.55 437.67 141.48 Z" />
<path fill="#fcfcfc" d=" M 37.93 146.00 C 37.25 142.10 41.18 138.97 44.80 139.14 C 48.13 139.62 50.70 142.60 50.89 145.92 C 50.52 147.60 49.78 149.22 48.72 150.58 C 46.01 151.72 42.97 151.11 40.13 150.99 C 39.02 149.51 37.56 148.03 37.93 146.00 Z" />
<path fill="#fcfcfc" d=" M 73.94 146.02 C 73.22 142.11 77.20 138.96 80.81 139.15 C 84.15 139.63 86.78 142.65 86.87 146.00 C 86.22 147.99 85.57 151.07 82.97 151.09 C 80.71 151.41 78.43 151.14 76.17 150.99 C 75.04 149.52 73.54 148.06 73.94 146.02 Z" />
<path fill="#fcfcfc" d=" M 110.00 143.19 C 111.73 140.29 115.62 137.91 118.87 139.83 C 123.35 141.60 124.11 148.35 120.05 150.89 C 117.46 151.50 114.78 151.17 112.16 150.99 C 109.83 148.98 109.75 146.04 110.00 143.19 Z" />
<path fill="#fcfcfc" d=" M 439.91 140.95 C 443.20 138.50 448.82 139.93 449.94 144.05 C 450.27 146.28 450.37 148.93 448.56 150.61 C 446.68 152.91 443.40 151.68 440.85 152.00 C 438.73 150.65 437.65 148.43 437.02 146.08 C 437.82 144.31 438.18 142.10 439.91 140.95 Z" />
<path fill="#fcfcfc" d=" M 303.05 150.31 C 326.35 150.43 349.65 150.43 372.95 150.31 C 373.40 160.74 373.40 171.26 372.95 181.69 C 349.66 181.58 326.36 181.55 303.06 181.70 C 302.58 171.27 302.61 160.75 303.05 150.31 Z" />
<path fill="#fcfcfc" d=" M 27.00 152.79 C 59.68 152.76 92.35 152.79 125.03 152.78 C 127.92 152.76 130.82 152.66 133.69 153.04 C 133.56 163.33 133.58 173.62 133.68 183.91 C 98.12 184.12 62.55 183.95 26.99 183.99 C 26.99 173.59 26.96 163.19 27.00 152.79 Z" />
<path fill="#fcfcfc" d=" M 426.26 153.21 C 437.83 152.74 449.43 153.12 461.01 153.00 C 461.02 163.34 461.02 173.67 461.01 184.01 C 449.44 183.93 437.87 184.16 426.31 183.89 C 426.40 173.67 426.49 163.43 426.26 153.21 Z" />
<path fill="#fcfcfc" d=" M 171.12 185.26 C 173.89 181.05 182.64 181.29 183.36 187.08 C 184.63 191.95 178.51 196.99 174.11 194.09 C 170.79 192.53 170.10 188.47 171.12 185.26 Z" />
<path fill="#fcfcfc" d=" M 207.12 185.27 C 209.30 181.93 214.24 181.82 217.47 183.55 C 221.47 187.11 219.02 194.16 213.85 194.90 C 208.80 195.52 205.19 189.81 207.12 185.27 Z" />
<path fill="#fcfcfc" d=" M 243.10 185.29 C 245.28 181.93 250.17 181.86 253.44 183.50 C 257.47 187.05 255.06 194.13 249.87 194.90 C 244.81 195.52 241.20 189.84 243.10 185.29 Z" />
<path fill="#fcfcfc" d=" M 314.35 185.41 C 316.01 181.61 320.60 183.34 323.82 183.02 C 327.64 186.05 327.24 192.51 322.63 194.54 C 317.26 197.21 311.41 190.52 314.35 185.41 Z" />
<path fill="#fcfcfc" d=" M 352.25 183.02 C 354.76 182.99 357.28 182.99 359.81 183.01 C 361.53 184.84 363.15 187.35 362.31 189.97 C 361.55 194.32 355.69 196.75 352.27 193.77 C 348.60 191.32 349.06 185.68 352.25 183.02 Z" />
<path fill="#fcfcfc" d=" M 39.69 195.29 C 36.62 192.54 37.53 187.16 40.88 185.00 C 43.17 185.02 45.47 185.03 47.77 185.02 C 49.77 187.09 51.94 190.22 50.19 193.10 C 48.91 197.42 42.59 198.54 39.69 195.29 Z" />
<path fill="#fcfcfc" d=" M 76.23 195.77 C 72.62 193.21 73.27 187.24 76.91 185.00 C 79.69 185.42 83.55 183.80 85.29 186.76 C 88.39 190.04 86.23 195.90 82.06 196.95 C 80.07 197.09 77.72 197.41 76.23 195.77 Z" />
<path fill="#fcfcfc" d=" M 111.68 195.28 C 108.63 192.54 109.51 187.10 112.92 185.00 C 115.19 185.05 117.48 184.87 119.73 185.18 C 121.99 186.95 123.81 190.27 122.21 193.04 C 120.96 197.40 114.60 198.56 111.68 195.28 Z" />
<path fill="#fcfcfc" d=" M 439.17 186.20 C 442.08 185.23 445.73 184.58 448.39 186.52 C 451.59 189.56 450.46 196.15 445.86 197.21 C 441.65 199.03 437.57 195.08 437.00 191.03 C 437.69 189.41 438.40 187.79 439.17 186.20 Z" />
</svg>
